<?xml version="1.0" standalone="no"?>
<!DOCTYPE svg PUBLIC "-//W3C//DTD SVG 20010904//EN"
 "http://www.w3.org/TR/2001/REC-SVG-20010904/DTD/svg10.dtd">
<svg version="1.0" xmlns="http://www.w3.org/2000/svg"
 width="795.000000pt" height="314.000000pt" viewBox="0 0 795.000000 314.000000"
 preserveAspectRatio="xMidYMid meet">

<g transform="translate(0.000000,314.000000) scale(0.100000,-0.100000)"
fill="#000000" stroke="none">
<path d="M1683 2960 c37 -34 66 -64 64 -66 -2 -3 -30 7 -62 21 -114 51 -295
70 -426 45 -30 -6 -74 -13 -99 -16 -53 -6 -162 -53 -154 -65 3 -5 0 -9 -7 -9
-7 0 -10 -2 -8 -4 2 -2 40 0 84 5 44 5 116 6 160 2 l80 -7 -70 -16 c-103 -24
-166 -47 -300 -108 -116 -52 -295 -112 -339 -112 -11 0 -28 -5 -36 -10 -22
-14 69 -51 141 -57 61 -6 75 -17 37 -28 -22 -7 -47 -21 -140 -82 -41 -27 -150
-151 -176 -200 -13 -23 -12 -24 7 -14 11 6 23 16 26 21 11 17 106 61 125 58
15 -2 7 -16 -41 -77 -58 -71 -135 -210 -157 -281 -27 -91 -23 -92 35 -6 76
111 219 233 312 264 62 21 61 13 -2 -45 -206 -190 -325 -479 -315 -763 l3 -95
48 97 c34 68 69 119 114 168 36 39 67 69 69 67 2 -2 -6 -41 -17 -87 -18 -72
-21 -103 -16 -224 6 -168 31 -264 98 -382 38 -67 129 -184 149 -192 4 -1 -2
30 -12 70 -37 140 -11 426 50 544 l19 37 6 -109 c10 -187 73 -382 174 -539 48
-74 241 -290 251 -281 2 3 -2 16 -11 29 -45 69 -107 287 -107 377 l0 31 62
-53 c60 -52 169 -189 221 -278 14 -25 38 -81 53 -125 34 -102 39 -267 10 -353
-10 -29 -15 -56 -12 -60 12 -11 190 180 230 246 21 35 49 93 61 128 13 36 25
68 29 71 3 4 6 -37 6 -90 0 -54 4 -97 8 -97 5 0 22 19 39 43 129 181 147 375
48 551 -33 60 -117 153 -100 111 73 -178 92 -326 60 -470 -9 -42 -18 -75 -20
-73 -2 2 -11 38 -20 79 -29 143 -114 319 -228 471 -94 127 -165 253 -199 353
-48 139 -34 306 35 418 l23 38 -4 -113 c-5 -129 14 -227 64 -332 31 -66 130
-180 119 -136 -12 46 -17 195 -7 220 11 28 11 29 35 -71 27 -112 60 -168 177
-294 113 -123 152 -184 181 -288 15 -57 17 -60 24 -34 4 16 5 61 3 101 -6 90
-41 169 -133 302 -90 128 -125 205 -125 272 0 70 21 111 72 145 88 57 233 17
272 -76 3 -8 9 -7 19 6 14 17 15 16 21 -9 4 -14 4 -34 1 -45 -8 -24 0 -24 33
2 29 22 40 12 23 -20 -18 -34 -14 -41 19 -29 42 14 127 93 150 139 11 21 20
53 20 71 0 31 -1 31 -25 -19 -36 -72 -51 -83 -60 -41 -3 18 -11 46 -17 62
l-11 28 -18 -23 -19 -24 0 34 0 34 -43 -6 c-24 -3 -56 -3 -71 1 -26 7 -25 8
27 34 64 31 167 52 213 43 29 -5 35 -2 48 22 8 16 17 46 21 67 4 20 18 49 30
64 29 35 52 81 56 112 4 23 0 25 -46 33 -92 14 -140 24 -159 32 -34 14 7 -46
63 -93 47 -40 51 -46 51 -88 0 -25 -4 -54 -10 -64 -11 -21 -107 -60 -148 -60
-26 0 -26 0 11 25 46 32 46 36 4 23 -23 -7 -46 -6 -77 2 -50 14 -42 24 30 34
72 11 84 26 20 26 -30 0 -73 5 -95 12 l-40 12 50 7 c28 4 73 8 100 9 l50 3
-60 7 c-33 4 -76 15 -95 26 l-35 19 60 5 c51 5 56 7 33 14 -42 12 -53 31 -31
54 10 10 33 24 51 32 31 12 32 14 16 31 -9 10 -19 33 -23 51 -6 29 -14 35 -81
63 -41 16 -80 33 -86 37 -6 4 -14 30 -18 58 -7 52 -22 67 -28 28 -3 -22 -6
-23 -78 -18 l-75 5 49 16 49 16 -74 42 c-41 23 -92 55 -114 71 -44 31 -97 50
-143 50 -22 0 -43 12 -77 45 -93 88 -202 120 -375 112 -63 -3 -137 -13 -164
-21 -27 -9 -51 -14 -54 -12 -2 3 29 20 70 39 238 114 475 94 625 -52 44 -43
57 -50 80 -45 20 4 52 -7 112 -36 l84 -41 -6 62 c-7 75 -64 197 -111 235 -120
99 -230 165 -296 179 -34 7 -34 6 33 -55z m-99 -414 c50 -25 102 -46 116 -47
l25 0 -26 -14 c-29 -15 -158 -39 -167 -30 -3 3 0 5 6 5 7 0 12 4 12 9 0 13
-98 34 -140 29 -31 -3 -35 -7 -38 -35 -3 -33 25 -100 52 -122 12 -10 28 -10
85 3 39 9 94 16 123 16 l53 0 -89 -40 c-90 -41 -180 -99 -189 -124 -5 -12 -1
-12 23 0 34 18 132 36 167 32 26 -3 26 -4 -28 -63 -73 -79 -113 -139 -155
-232 -112 -245 -123 -492 -32 -726 16 -43 28 -81 25 -83 -6 -7 -69 81 -95 131
-11 22 -32 78 -48 125 -24 76 -28 100 -28 227 -1 77 -5 136 -9 130 -23 -34
-62 -119 -78 -167 -15 -48 -17 -51 -18 -23 -2 69 22 186 54 269 40 101 80 165
156 248 l53 59 -34 -8 c-49 -10 -165 -69 -227 -116 -74 -55 -119 -104 -170
-181 -24 -38 -46 -68 -48 -68 -13 0 52 146 100 226 78 131 232 273 350 324
l46 20 -39 37 c-76 72 -81 174 -12 221 51 35 110 26 224 -32z m454 -235 c26
-10 65 -24 87 -30 38 -10 135 -91 135 -112 0 -5 -12 -9 -27 -9 -16 -1 -50 -11
-78 -24 l-50 -24 -3 24 c-2 16 -18 34 -42 49 -22 14 -46 38 -55 55 -8 16 -29
39 -45 51 -54 41 -4 53 78 20z"/>
<path d="M2140 2486 c0 -2 23 -23 51 -45 28 -22 64 -60 78 -83 19 -30 52 -58
105 -91 43 -26 80 -46 83 -44 5 5 -83 69 -126 91 -23 13 -31 23 -31 45 0 32
-24 57 -98 100 -52 31 -62 35 -62 27z"/>
<path d="M4864 1768 l1 -43 58 -3 57 -3 0 46 0 45 -58 0 -58 0 0 -42z"/>
<path d="M6630 1765 l0 -45 55 0 55 0 0 45 0 45 -55 0 -55 0 0 -45z"/>
<path d="M2900 1525 l0 -275 55 0 55 0 0 275 0 275 -55 0 -55 0 0 -275z"/>
<path d="M6060 1526 l0 -276 55 0 55 0 0 90 0 90 49 0 c68 0 77 -5 112 -66 17
-30 45 -70 63 -89 32 -33 35 -34 87 -28 30 3 56 7 57 9 4 3 -66 102 -114 161
-25 31 -25 33 -8 39 11 4 34 18 53 32 91 67 79 226 -21 282 -36 20 -58 23
-214 28 l-174 5 0 -277z m329 150 c17 -15 21 -29 19 -59 -5 -62 -38 -81 -149
-85 l-89 -4 0 87 0 87 99 -4 c81 -2 103 -7 120 -22z"/>
<path d="M3573 1657 c-18 -7 -42 -22 -54 -34 l-22 -22 -34 29 c-30 27 -41 30
-98 30 -53 0 -68 -4 -94 -25 l-30 -26 -3 23 c-3 20 -10 23 -55 26 l-53 3 0
-205 0 -206 55 0 55 0 0 133 c0 127 1 135 23 155 31 29 87 29 113 1 16 -18 20
-40 22 -155 l4 -134 54 0 54 0 0 124 c0 112 2 126 23 157 12 19 31 35 41 37
58 12 96 -34 96 -116 0 -27 3 -83 6 -125 l7 -77 47 0 47 0 6 118 c9 190 -8
247 -86 283 -48 21 -78 23 -124 6z"/>
<path d="M4473 1660 c-62 -14 -97 -43 -127 -104 -29 -56 -29 -61 -18 -124 18
-109 75 -162 173 -162 63 0 97 10 122 35 16 15 17 14 17 -14 0 -58 -18 -79
-78 -92 -47 -9 -66 -8 -115 5 -65 18 -71 17 -93 -25 l-15 -30 45 -19 c122 -55
241 -44 319 28 46 43 57 103 57 309 l0 183 -55 0 c-53 0 -55 -1 -55 -27 l0
-28 -18 21 c-31 40 -100 58 -159 44z m133 -108 c27 -23 47 -83 38 -116 -15
-63 -99 -94 -163 -61 -35 17 -41 32 -41 96 0 41 5 54 26 74 33 31 107 34 140
7z"/>
<path d="M5270 1659 c-14 -6 -35 -20 -47 -31 l-23 -21 0 26 c0 26 -2 27 -55
27 l-55 0 0 -205 0 -205 54 0 54 0 4 138 c3 156 8 167 68 177 81 14 100 -23
100 -190 l0 -125 55 0 55 0 0 152 c0 143 -1 153 -25 194 -17 29 -35 46 -57 52
-56 17 -102 21 -128 11z"/>
<path d="M3932 1653 c-29 -6 -34 -19 -24 -58 l8 -30 86 0 c94 0 128 -16 128
-60 0 -21 -3 -22 -42 -14 -137 26 -228 -25 -228 -128 0 -110 158 -168 254 -92
l26 20 0 -20 c0 -19 6 -21 57 -21 l56 0 -6 155 c-6 171 -15 198 -80 232 -32
17 -184 27 -235 16z m198 -239 c16 -16 -8 -70 -36 -83 -31 -14 -79 -14 -105
-1 -27 15 -25 64 4 85 24 18 119 17 137 -1z"/>
<path d="M4870 1455 l0 -205 55 0 55 0 0 205 0 205 -55 0 -55 0 0 -205z"/>
<path d="M5695 1649 c-49 -19 -94 -58 -110 -96 -19 -45 -19 -153 -1 -196 52
-122 260 -158 348 -60 17 19 17 21 -12 48 -29 28 -31 29 -58 13 -56 -33 -119
-27 -163 15 l-34 32 150 5 150 5 -2 63 c-2 70 -30 125 -81 158 -31 21 -145 28
-187 13z m137 -97 c9 -9 20 -29 23 -44 l7 -28 -96 0 c-53 0 -96 4 -96 9 0 19
35 70 55 80 26 14 86 4 107 -17z"/>
<path d="M6630 1455 l0 -205 55 0 55 0 0 205 0 205 -55 0 -55 0 0 -205z"/>
<path d="M6886 1639 c-70 -55 -72 -140 -4 -189 22 -16 61 -36 88 -45 55 -18
73 -35 64 -59 -9 -23 -80 -21 -127 4 -49 27 -55 26 -74 -15 -16 -34 -16 -36 3
-50 31 -23 104 -45 153 -45 61 0 112 27 133 70 42 84 6 150 -106 189 -71 25
-90 40 -80 65 8 20 48 21 104 1 23 -8 46 -15 51 -15 8 0 39 52 39 65 0 3 -19
15 -42 25 -61 28 -166 27 -202 -1z"/>
<path d="M7314 1650 c-39 -16 -93 -78 -105 -122 -16 -60 -3 -151 27 -199 52
-82 183 -114 274 -66 61 32 70 50 40 82 -29 30 -33 31 -70 4 -41 -31 -113 -22
-146 17 -13 16 -23 32 -24 37 0 4 65 7 145 7 l145 0 0 24 c0 13 -5 47 -10 77
-12 60 -53 112 -107 135 -36 15 -136 18 -169 4z m115 -81 c29 -10 61 -52 61
-79 0 -6 -35 -10 -95 -10 -52 0 -95 3 -95 8 0 18 42 74 63 82 29 12 29 12 66
-1z"/>
</g>
</svg>
