<?xml version="1.0" standalone="no"?>
<!DOCTYPE svg PUBLIC "-//W3C//DTD SVG 20010904//EN"
 "http://www.w3.org/TR/2001/REC-SVG-20010904/DTD/svg10.dtd">
<svg version="1.0" xmlns="http://www.w3.org/2000/svg"
 width="500.000000pt" height="500.000000pt" viewBox="0 0 500.000000 500.000000"
 preserveAspectRatio="xMidYMid meet">

<g transform="translate(0.000000,500.000000) scale(0.100000,-0.100000)"
fill="#000000" stroke="none">
<path d="M2695 4290 c-22 -5 -67 -18 -100 -29 -33 -12 -83 -24 -112 -26 -64
-5 -124 -34 -159 -79 l-27 -34 -40 21 c-51 26 -130 33 -199 17 -29 -7 -57 -15
-62 -18 -5 -3 15 -18 45 -34 30 -16 44 -27 32 -25 -11 3 -63 -2 -115 -10 -96
-15 -203 -12 -238 7 -29 16 -24 -2 10 -35 16 -15 27 -32 24 -37 -8 -12 -83
-10 -142 6 -29 7 -52 9 -52 4 0 -13 29 -67 62 -116 l29 -42 -26 -10 c-15 -6
-28 -10 -31 -10 -27 0 -251 -136 -241 -147 3 -2 29 3 58 11 85 26 87 20 19
-48 -68 -68 -132 -166 -169 -258 -31 -78 -23 -91 24 -35 22 26 43 47 47 47 8
0 -52 -117 -85 -165 -54 -79 -110 -119 -186 -131 -41 -7 -41 -7 -24 -26 24
-27 67 -48 114 -56 l39 -7 -23 -35 c-13 -19 -38 -72 -56 -117 -18 -45 -44 -94
-58 -109 l-25 -27 42 6 c23 3 50 13 61 23 24 21 24 23 -5 -88 -13 -51 -26
-109 -29 -128 l-6 -35 18 35 c11 19 38 53 61 75 l42 40 -40 -75 c-48 -90 -67
-154 -82 -280 -6 -52 -13 -113 -17 -135 l-5 -40 22 20 c12 11 47 53 77 93 57
77 74 87 50 31 -8 -19 -20 -71 -27 -117 -19 -118 4 -253 62 -365 l22 -42 14
65 c22 100 25 101 33 16 10 -115 72 -237 173 -340 71 -72 102 -94 90 -61 -12
30 5 14 33 -32 40 -68 72 -135 72 -155 1 -9 6 -20 11 -23 6 -4 10 11 10 37 l0
43 27 -35 c71 -90 172 -172 251 -203 57 -23 57 -22 23 20 -27 34 -71 143 -71
175 0 7 18 -5 39 -26 32 -31 40 -35 43 -21 4 24 95 -115 109 -167 13 -50 25
-41 34 23 l7 51 28 -27 c39 -38 82 -120 95 -185 l12 -55 23 39 c21 34 25 37
31 20 4 -10 8 -33 8 -50 1 -48 15 -50 26 -2 l11 43 31 -75 c34 -81 51 -99 47
-48 -2 18 -1 24 3 14 5 -19 6 -18 18 5 13 22 13 20 8 -21 -7 -58 5 -46 37 37
14 36 29 66 34 66 5 1 15 -16 22 -38 10 -34 12 -36 13 -14 2 40 13 89 20 89 4
0 15 -13 24 -30 10 -16 22 -30 26 -30 5 0 11 22 13 49 6 58 36 124 82 177 l34
39 11 -58 c12 -55 31 -78 31 -37 0 12 11 42 24 68 33 64 86 140 86 125 0 -21
16 -15 50 17 l32 30 -7 -37 c-10 -55 -42 -124 -72 -155 -31 -32 -20 -35 34
-11 95 44 192 124 246 205 l25 38 7 -48 7 -47 22 60 c30 82 90 185 94 163 2
-10 7 -18 12 -18 4 0 37 31 72 68 107 114 170 237 185 360 6 56 23 54 23 -4 0
-17 3 -46 6 -63 l7 -32 24 42 c74 131 91 339 39 489 -14 41 -14 41 6 23 11
-10 37 -43 58 -73 44 -65 80 -100 80 -79 0 8 -7 70 -15 138 -16 141 -34 209
-76 295 l-30 61 51 -54 c27 -30 50 -51 50 -45 0 12 -47 194 -56 217 -6 17 -4
17 27 -2 19 -12 47 -21 62 -21 l29 0 -24 28 c-12 15 -31 48 -42 72 -10 25 -33
74 -50 110 -17 36 -32 68 -34 71 -1 4 16 9 39 12 38 5 108 49 116 73 1 5 -14
10 -35 10 -52 2 -91 24 -147 81 -41 43 -132 199 -121 210 2 2 23 -19 47 -46
23 -28 44 -49 47 -46 10 9 -63 170 -108 239 -25 39 -71 93 -101 120 l-54 49
40 -7 c22 -5 57 -14 78 -21 20 -7 37 -11 37 -9 0 7 -107 82 -150 106 -25 13
-71 35 -102 47 l-57 23 24 33 c27 35 76 127 71 132 -2 2 -15 -1 -30 -7 -40
-15 -162 -24 -169 -13 -4 6 7 23 23 38 17 16 30 32 30 36 0 4 -21 1 -47 -7
-59 -18 -101 -18 -219 1 -52 9 -99 13 -104 10 -6 -4 -10 -3 -10 0 0 3 23 17
51 30 l51 23 -38 12 c-75 22 -164 23 -226 2 -32 -11 -58 -16 -58 -13 0 21 65
104 101 131 l42 30 -49 -1 c-27 -1 -67 -5 -89 -9z m-24 -45 c-18 -8 -38 -15
-45 -15 -15 1 46 28 64 29 8 0 0 -6 -19 -14z m-688 -202 c-7 -2 -21 -2 -30 0
-10 3 -4 5 12 5 17 0 24 -2 18 -5z m-106 -80 c-9 -2 -14 -9 -11 -15 4 -6 -12
-8 -47 -4 -30 3 -76 8 -103 11 -88 9 -62 15 60 14 65 -1 111 -3 101 -6z m1428
-3 c-11 -5 -49 -9 -85 -9 -36 0 -74 4 -85 9 -13 6 18 9 85 9 67 0 98 -3 85 -9z
m-1766 -290 c-20 -11 -52 -39 -70 -62 -44 -58 -54 -68 -39 -39 26 51 105 122
135 121 6 -1 -6 -10 -26 -20z m1946 -10 c10 -11 16 -20 13 -20 -3 0 -13 9 -23
20 -10 11 -16 20 -13 20 3 0 13 -9 23 -20z m75 -86 c0 -11 -49 48 -50 59 0 5
11 -5 25 -21 14 -17 25 -34 25 -38z m-1284 -358 c11 -8 26 -33 33 -56 11 -37
10 -44 -16 -90 -15 -28 -32 -50 -36 -50 -5 0 -6 -4 -3 -9 4 -5 -1 -8 -10 -7
-35 5 -38 70 -5 91 17 10 14 75 -3 75 -27 0 -58 -58 -59 -110 0 -27 -4 -47 -9
-44 -15 9 -9 128 8 152 9 13 11 22 4 22 -32 0 24 31 70 39 3 1 15 -5 26 -13z
m529 -12 c11 -8 14 -14 8 -14 -6 0 -3 -14 8 -37 22 -43 24 -86 5 -128 l-14
-30 5 42 c7 51 -29 136 -56 131 -24 -5 -25 -44 -2 -82 24 -39 26 -59 8 -75
-11 -8 -18 -5 -34 12 -35 40 -53 76 -53 107 0 35 23 86 42 93 18 7 59 -3 83
-19z m-131 -38 c-3 -9 -10 -13 -15 -10 -5 3 -3 11 4 19 15 16 19 13 11 -9z
m-533 -159 c13 -10 2 -12 -61 -12 -68 0 -74 2 -51 12 34 15 92 15 112 0z m163
5 c3 -5 -1 -9 -9 -9 -8 0 -12 4 -9 9 3 4 7 8 9 8 2 0 6 -4 9 -8z m401 -10 c-3
-3 -11 0 -18 7 -9 10 -8 11 6 5 10 -3 15 -9 12 -12z m263 5 c19 -11 13 -13
-53 -12 -63 0 -72 2 -58 13 22 15 81 15 111 -1z m-48 -70 c0 -29 -18 -47 -46
-47 -36 0 -54 11 -54 31 0 20 15 26 25 9 10 -17 33 -11 40 10 9 28 35 25 35
-3z m-808 -4 c14 -13 21 -14 30 -5 19 19 30 14 26 -10 -6 -46 -98 -29 -98 18
0 19 19 18 42 -3z m15 -73 c44 -5 48 -7 54 -40 18 -92 18 -101 9 -95 -6 3 -10
15 -10 25 0 11 -5 31 -12 45 -9 19 -19 25 -44 25 -49 0 -79 18 -103 60 -32 58
-25 68 19 25 32 -31 50 -40 87 -45z m643 26 c-6 -19 -18 -40 -27 -48 -15 -12
-16 -9 -10 26 6 39 38 87 45 67 2 -6 -1 -26 -8 -45z m204 -1 c-19 -41 -43 -57
-99 -64 -36 -5 -41 -10 -57 -51 l-17 -45 5 45 c10 89 11 90 50 90 43 0 70 13
103 53 30 36 39 21 15 -28z m-724 16 c6 -16 10 -40 8 -53 -3 -22 -4 -22 -21 9
-18 34 -23 73 -8 73 5 0 14 -13 21 -29z m190 -56 c7 -9 11 -17 9 -19 -8 -6
-69 15 -69 24 0 16 46 12 60 -5z m170 7 c0 -5 -15 -17 -34 -27 -19 -11 -32
-24 -28 -29 9 -16 7 -56 -3 -58 -17 -5 -17 72 0 98 15 23 65 35 65 16z m-654
-68 c-4 -9 -9 -15 -11 -12 -3 3 -3 13 1 22 4 9 9 15 11 12 3 -3 3 -13 -1 -22z
m44 6 c0 -5 18 -15 40 -21 21 -7 37 -16 34 -20 -9 -15 -34 -10 -65 12 -29 20
-38 39 -19 39 6 0 10 -4 10 -10z m460 -24 c0 -13 -6 -28 -13 -34 -10 -8 -12
-2 -9 29 4 41 22 45 22 5z m550 20 c0 -15 -60 -44 -80 -39 -20 5 -18 8 21 24
48 18 59 21 59 15z m-580 -79 c0 -2 -9 -12 -20 -22 -24 -21 -27 -14 -4 9 15
15 24 20 24 13z m164 -23 c3 -8 2 -12 -4 -9 -6 3 -10 10 -10 16 0 14 7 11 14
-7z m-1413 -181 c-11 -21 -20 -35 -21 -31 0 12 33 78 38 74 2 -2 -6 -21 -17
-43z m1072 -64 c13 -17 27 -21 88 -23 41 -1 94 -9 118 -16 38 -11 49 -11 93 5
36 13 66 16 110 12 54 -5 62 -3 81 19 19 22 22 23 39 8 43 -40 28 -127 -35
-192 l-32 -33 30 7 c17 4 41 11 55 16 14 6 39 12 55 15 17 3 38 9 48 14 13 8
17 6 17 -8 0 -12 -18 -25 -58 -41 -105 -44 -100 -41 -64 -41 18 -1 53 4 76 10
24 6 53 9 65 7 l22 -3 -20 -22 c-20 -21 -20 -22 -1 -25 18 -3 19 -5 6 -30 -8
-15 -12 -29 -8 -32 3 -3 -1 -6 -10 -6 -8 0 -25 -12 -39 -27 l-24 -27 27 17
c26 16 27 16 21 0 -4 -10 -11 -21 -17 -25 -6 -4 -11 -13 -11 -20 0 -7 -9 -13
-20 -14 -11 -1 -33 -6 -48 -13 -16 -6 -43 -11 -62 -11 -18 0 -35 -5 -37 -12
-10 -29 -198 92 -198 127 0 20 50 112 71 131 10 9 47 31 81 49 74 37 108 80
108 136 0 22 -4 39 -10 39 -5 0 -10 -6 -10 -14 0 -7 -12 -25 -26 -39 -24 -24
-26 -25 -53 -9 -26 15 -33 15 -90 -1 -76 -21 -116 -21 -192 0 -57 16 -64 16
-90 1 -28 -16 -29 -16 -54 13 -14 17 -25 36 -25 42 0 7 -5 4 -11 -6 -12 -21
-3 -72 19 -106 9 -13 41 -35 72 -48 85 -38 145 -104 151 -168 3 -32 -15 -75
-32 -75 -6 0 -25 -11 -42 -24 -27 -20 -99 -56 -114 -56 -2 0 -1 5 2 10 4 6 -8
10 -29 10 -19 0 -47 5 -63 11 -15 7 -41 11 -56 10 -18 -1 -26 2 -22 9 4 6 -1
18 -11 25 -11 8 -15 15 -10 15 5 0 2 8 -5 18 -13 15 -12 16 4 3 24 -19 34 -5
13 18 -11 12 -25 17 -34 13 -14 -5 -15 -3 -5 9 10 12 8 18 -8 32 -22 19 -17
40 6 30 8 -3 15 -1 15 3 0 14 -14 31 -30 37 -25 9 55 8 86 -2 50 -16 94 -21
94 -11 0 6 -9 10 -20 10 -24 0 -92 27 -100 39 -3 4 -23 13 -45 19 -35 9 -36
10 -12 11 16 1 26 5 23 10 -6 9 66 -7 148 -33 58 -19 69 -14 34 13 -33 26 -71
115 -62 144 9 29 34 67 45 67 4 0 14 -9 22 -21z m844 -115 c-3 -3 -12 -4 -19
-1 -8 3 -5 6 6 6 11 1 17 -2 13 -5z m-1234 -41 c-18 -2 -48 -2 -65 0 -18 2 -4
4 32 4 36 0 50 -2 33 -4z m1300 0 c-13 -2 -33 -2 -45 0 -13 2 -3 4 22 4 25 0
35 -2 23 -4z m-1164 -19 c2 -2 -22 -4 -55 -3 -43 1 -52 3 -34 9 22 6 79 3 89
-6z m1084 -1 c-18 -2 -48 -2 -65 0 -18 2 -4 4 32 4 36 0 50 -2 33 -4z m-1135
-60 c-21 -2 -55 -2 -75 0 -21 2 -4 4 37 4 41 0 58 -2 38 -4z m1180 0 c-21 -2
-57 -2 -80 0 -24 2 -7 4 37 4 44 0 63 -2 43 -4z m592 -78 c0 -5 -5 -3 -10 5
-5 8 -10 20 -10 25 0 6 5 3 10 -5 5 -8 10 -19 10 -25z m-1803 9 c-3 -3 -12 -4
-19 -1 -8 3 -5 6 6 6 11 1 17 -2 13 -5z m93 2 c0 -2 -9 -6 -20 -9 -11 -3 -18
-1 -14 4 5 9 34 13 34 5z m1004 -5 c4 -5 -3 -7 -14 -4 -23 6 -26 13 -6 13 8 0
17 -4 20 -9z m83 3 c-3 -3 -12 -4 -19 -1 -8 3 -5 6 6 6 11 1 17 -2 13 -5z
m-1220 -10 c-3 -3 -12 -4 -19 -1 -8 3 -5 6 6 6 11 1 17 -2 13 -5z m1260 0 c-3
-3 -12 -4 -19 -1 -8 3 -5 6 6 6 11 1 17 -2 13 -5z m-1212 -14 c-3 -5 -12 -10
-18 -10 -7 0 -6 4 3 10 19 12 23 12 15 0z m1295 0 c8 -5 11 -10 5 -10 -5 0
-17 5 -25 10 -8 5 -10 10 -5 10 6 0 17 -5 25 -10z m-1160 -154 c0 -2 -8 -10
-17 -17 -16 -13 -17 -12 -4 4 13 16 21 21 21 13z m369 -42 c5 3 15 1 23 -6 27
-27 98 -16 98 15 0 8 -3 9 -8 1 -7 -10 -42 -27 -42 -20 0 2 11 11 25 20 24 16
27 16 43 -1 9 -11 14 -14 9 -7 -13 20 20 24 45 5 13 -9 40 -25 61 -35 20 -9
48 -29 62 -44 14 -15 25 -21 25 -14 0 7 4 11 9 7 5 -3 12 3 14 12 3 11 5 8 6
-9 0 -16 -3 -28 -9 -28 -6 0 -6 -9 0 -26 6 -14 10 -34 10 -45 0 -16 -5 -14
-31 13 -21 23 -27 26 -20 11 14 -27 14 -63 1 -63 -5 0 -10 -9 -10 -19 0 -11
-4 -23 -10 -26 -6 -3 -10 5 -10 19 0 31 -20 45 -20 14 -1 -13 -7 -36 -15 -53
l-13 -30 -2 45 c0 25 -8 56 -16 70 l-15 25 5 -31 c6 -40 -7 -96 -32 -136 l-20
-32 5 62 c4 43 2 62 -6 62 -11 0 -16 -25 -13 -62 1 -10 -3 -18 -8 -18 -6 0
-10 -9 -10 -20 0 -10 -9 -24 -20 -30 -11 -6 -20 -17 -20 -25 0 -8 -5 -26 -12
-40 l-12 -26 -18 37 c-10 21 -18 44 -18 51 0 7 -9 22 -20 33 -12 12 -18 25
-15 29 3 5 -4 20 -15 32 l-19 24 -1 -32 c0 -17 4 -43 10 -57 17 -46 0 -27 -25
27 -14 30 -25 71 -25 97 -1 36 -3 41 -11 27 -6 -9 -10 -41 -11 -69 0 -50 -1
-51 -13 -28 -8 14 -17 42 -20 64 -5 27 -10 35 -16 25 -7 -11 -9 -9 -10 6 -1
14 -4 10 -9 -10 -5 -21 -8 -24 -10 -10 l-1 20 -9 -20 c-9 -20 -9 -20 -9 0 -1
11 3 36 9 55 l9 35 -24 -28 -25 -28 0 33 c0 18 -3 44 -5 58 -5 22 -4 22 4 5 5
-11 10 -14 10 -7 1 7 6 10 11 7 6 -4 20 5 31 19 11 13 44 37 74 52 31 14 58
31 62 37 4 6 11 3 19 -7 7 -10 17 -15 23 -12z m349 19 c-10 -2 -26 -2 -35 0
-10 3 -2 5 17 5 19 0 27 -2 18 -5z"/>
<path d="M2868 2129 c-9 -5 -42 -10 -72 -10 -31 -1 -59 -6 -62 -11 -7 -11 158
0 169 11 12 12 -17 20 -35 10z"/>
<path d="M2095 2120 c3 -5 21 -10 38 -9 31 1 31 1 7 9 -36 11 -52 11 -45 0z"/>
<path d="M2175 2110 c-3 -5 1 -10 9 -10 9 0 16 5 16 10 0 6 -4 10 -9 10 -6 0
-13 -4 -16 -10z"/>
<path d="M2235 2109 c-30 -7 -30 -7 7 -8 20 0 39 3 42 7 6 10 -8 10 -49 1z"/>
<path d="M2158 2033 c7 -3 16 -2 19 1 4 3 -2 6 -13 5 -11 0 -14 -3 -6 -6z"/>
<path d="M2818 2033 c7 -3 16 -2 19 1 4 3 -2 6 -13 5 -11 0 -14 -3 -6 -6z"/>
<path d="M2401 1684 c0 -11 3 -14 6 -6 3 7 2 16 -1 19 -3 4 -6 -2 -5 -13z"/>
</g>
</svg>
